<svg width="701" height="693" viewBox="0 0 701 693" fill="none" xmlns="http://www.w3.org/2000/svg">
<rect x="139.5" y="79.5" width="434" height="573" rx="67.5" stroke="white" stroke-width="25"/>
<path d="M409 652C457.128 615.172 557.108 526.412 572 466" stroke="white" stroke-width="20"/>
<path d="M442 624V519C442 510.716 448.716 504 457 504H551" stroke="white" stroke-width="20" stroke-linejoin="round"/>
<path d="M207 474.5H381.5M207 521.5H381.5M207 572.5H381.5" stroke="white" stroke-width="20" stroke-linecap="round" stroke-linejoin="round"/>
<path fill-rule="evenodd" clip-rule="evenodd" d="M293.722 186.245C313.336 179.074 334.919 175 357.5 175C381.045 175 403.755 178.965 424.395 186.036C432.827 162.721 445.204 148 459 148C482.11 148 501.24 189.31 504.508 243.128C515.653 259.328 522 277.478 522 296.5C522 362.498 450.089 420.5 362 420.5C273.911 420.5 196.5 368.998 196.5 303C196.5 284.71 202.1 266.727 212.07 250.285C213.401 191.596 233.455 145 258 145C272.419 145 285.288 161.08 293.722 186.245ZM298 272C273.147 272 253 292.147 253 317V326C253 350.853 273.147 371 298 371H419C443.853 371 464 350.853 464 326V317C464 292.147 443.853 272 419 272H298Z" fill="#F1AC4F"/>
<path fill-rule="evenodd" clip-rule="evenodd" d="M250.097 156.015C247.05 156.26 243.675 157.529 240.01 161.131C223.647 177.218 224.382 200.722 228.634 216.003C230.55 222.887 230.093 230.595 226.498 237.381C211.375 265.927 196.355 321.966 229.585 367.615C235.547 375.806 244.227 382.494 255.095 387.806C256.314 388.116 257.46 388.653 258.473 389.381C260.834 390.432 263.288 391.424 265.831 392.357C270.835 393.747 277.79 395.314 286.266 396.847C304.823 400.203 329.991 403.269 356.598 404.004C357.254 404.022 357.911 404.039 358.567 404.054C359.224 404.039 359.881 404.022 360.536 404.004C387.144 403.269 412.312 400.203 430.869 396.847C439.345 395.314 446.299 393.747 451.304 392.357C453.847 391.424 456.301 390.432 458.662 389.381C459.675 388.653 460.821 388.116 462.039 387.806C472.908 382.494 481.587 375.806 487.55 367.615C520.78 321.966 505.76 265.927 490.637 237.381C487.041 230.595 486.585 222.887 488.5 216.003C492.753 200.722 493.488 177.218 477.124 161.131C473.46 157.529 470.084 156.26 467.038 156.015C463.788 155.753 459.974 156.594 455.604 158.78C446.653 163.258 437.63 172.25 430.82 181.142C425.588 187.972 417.075 192.461 407.707 191.654C399.028 190.906 388.517 190.073 379.455 189.511C369.905 188.919 363.19 188.722 361.239 188.939C360.328 189.04 359.431 189.016 358.567 188.879C357.703 189.016 356.807 189.04 355.896 188.939C353.945 188.722 347.23 188.919 337.68 189.511C328.618 190.073 318.107 190.906 309.427 191.654C300.059 192.461 291.547 187.972 286.315 181.142C279.505 172.25 270.482 163.258 261.53 158.78C257.161 156.594 253.347 155.753 250.097 156.015ZM213.415 379.385C221.88 391.013 233.649 399.715 247.18 406.192C247.332 406.307 247.456 406.395 247.545 406.458L247.546 406.459L247.569 406.476C248.748 407.315 250.008 407.948 251.044 408.414C253.179 409.376 255.866 410.29 258.811 411.152C258.895 411.177 258.979 411.201 259.064 411.226C259.143 411.249 259.223 411.272 259.303 411.295C259.395 411.321 259.487 411.348 259.58 411.374C259.626 411.387 259.672 411.401 259.718 411.414C265.537 413.514 271.568 415.287 277.709 416.78C303.044 422.937 331.655 424.656 358.567 424.059C385.48 424.656 414.09 422.937 439.426 416.78C445.567 415.287 451.597 413.514 457.417 411.414C457.548 411.376 457.678 411.339 457.807 411.302L457.958 411.258C458.019 411.241 458.08 411.223 458.14 411.206C458.202 411.188 458.263 411.17 458.324 411.152C461.269 410.29 463.956 409.376 466.091 408.414C467.127 407.948 468.387 407.315 469.565 406.476L469.589 406.459L469.594 406.455C469.654 406.413 469.73 406.359 469.819 406.293C469.862 406.262 469.907 406.228 469.955 406.192C483.486 399.714 495.255 391.013 503.72 379.385C511.01 369.37 516.342 359.007 520.087 348.568L534.253 352.615C539.563 354.132 545.098 351.058 546.615 345.747C548.133 340.437 545.058 334.902 539.747 333.385L525.289 329.254C526.29 323.848 526.926 318.467 527.25 313.148L538.961 310.806C544.377 309.723 547.889 304.454 546.806 299.039C545.723 293.623 540.455 290.111 535.039 291.194L527.039 292.794C524.962 266.516 516.351 243.197 508.31 228.018C507.355 226.217 507.078 223.844 507.768 221.365C512.794 203.304 515.213 170.528 491.145 146.869C484.441 140.278 476.774 136.733 468.642 136.079C460.712 135.441 453.208 137.615 446.656 140.893C433.765 147.342 422.53 159.074 414.942 168.98C413.367 171.037 411.21 171.881 409.424 171.728C400.664 170.973 389.978 170.125 380.693 169.55C371.896 169.004 363.115 168.607 359.03 169.061C358.875 169.079 358.72 169.099 358.567 169.123C358.414 169.099 358.26 169.079 358.104 169.061C354.02 168.607 345.239 169.004 336.442 169.55C327.157 170.125 316.47 170.973 307.711 171.728C305.925 171.881 303.768 171.037 302.193 168.98C294.605 159.074 283.37 147.342 270.479 140.893C263.926 137.615 256.423 135.441 248.493 136.079C240.36 136.733 232.694 140.278 225.99 146.869C201.922 170.528 204.34 203.304 209.366 221.365C210.056 223.844 209.779 226.217 208.825 228.018C200.641 243.467 191.866 267.349 189.991 294.2L179.961 292.194C174.546 291.111 169.277 294.623 168.194 300.039C167.111 305.454 170.623 310.723 176.039 311.806L189.98 314.594C190.335 319.563 190.966 324.584 191.915 329.624L175.253 334.385C169.943 335.902 166.868 341.437 168.385 346.747C169.902 352.058 175.437 355.132 180.747 353.615L197.175 348.922C200.914 359.241 206.207 369.483 213.415 379.385ZM303.5 278.445H415C439.024 278.445 458.5 297.406 458.5 320.796C458.5 344.186 433.524 367.528 409.5 367.528H306.5C282.476 367.528 260 344.186 260 320.796C260 297.406 279.476 278.445 303.5 278.445ZM240 319.823C240 285.679 268.43 258 303.5 258L413.5 258.974C448.57 258.974 477 286.653 477 320.796C477 354.94 444.57 387 409.5 387H306.5C271.43 387 240 353.966 240 319.823ZM320 311.5C320 324.479 312.165 335 302.5 335C292.835 335 285 324.479 285 311.5C285 298.521 292.835 288 302.5 288C312.165 288 320 298.521 320 311.5ZM413.5 335C423.165 335 431 324.479 431 311.5C431 298.521 423.165 288 413.5 288C403.835 288 396 298.521 396 311.5C396 324.479 403.835 335 413.5 335ZM327.441 340.329C330.297 335.602 336.444 334.085 341.171 336.941C344.033 338.67 349.661 341.038 356.142 341.717C362.484 342.381 369.001 341.385 374.725 337.336C379.234 334.147 385.475 335.216 388.664 339.725C391.853 344.234 390.784 350.475 386.275 353.664C375.599 361.215 363.866 362.635 354.058 361.608C344.389 360.595 335.967 357.164 330.829 354.059C326.102 351.203 324.585 345.056 327.441 340.329ZM357 315C351.477 315 347 319.477 347 325C347 330.523 351.477 335 357 335H358.5C364.023 335 368.5 330.523 368.5 325C368.5 319.477 364.023 315 358.5 315H357Z" fill="white"/>
<g clip-path="url(#clip0_51_234)">
<path d="M28.5968 292.5C37.4623 287.637 45.0456 280.112 51.0474 271.028C55.4759 264.326 59.1172 256.686 61.8652 248.429C64.6133 256.686 68.2545 264.326 72.6831 271.028C78.6849 280.112 86.2681 287.637 95.1337 292.5C86.2681 297.364 78.6848 304.889 72.6831 313.973C68.2545 320.676 64.6133 328.315 61.8652 336.572C59.1172 328.315 55.476 320.676 51.0474 313.973C45.0456 304.889 37.4624 297.364 28.5968 292.5Z" fill="#F1AC4F" stroke="white" stroke-width="12"/>
</g>
<g clip-path="url(#clip1_51_234)">
<path d="M569.281 437.5C582.448 430.395 593.705 419.269 602.597 405.79C609.225 395.741 614.649 384.252 618.701 371.825C622.753 384.252 628.176 395.741 634.804 405.79C643.696 419.269 654.953 430.395 668.12 437.5C654.953 444.606 643.696 455.732 634.804 469.212C628.176 479.261 622.753 490.75 618.701 503.177C614.649 490.75 609.225 479.261 602.597 469.212C593.705 455.732 582.449 444.606 569.281 437.5Z" fill="#F1AC4F" stroke="white" stroke-width="17"/>
</g>
<g clip-path="url(#clip2_51_234)">
<path d="M58.2814 564.5C71.4485 557.395 82.7054 546.269 91.5966 532.79C98.2249 522.741 103.649 511.252 107.701 498.825C111.753 511.252 117.176 522.741 123.804 532.79C132.696 546.269 143.953 557.395 157.12 564.5C143.953 571.606 132.696 582.732 123.804 596.212C117.176 606.261 111.753 617.75 107.701 630.177C103.649 617.75 98.2249 606.261 91.5967 596.212C82.7055 582.732 71.4486 571.606 58.2814 564.5Z" fill="#F1AC4F" stroke="white" stroke-width="17"/>
</g>
<path d="M111.575 41.0161C115.761 38.5362 119.347 34.887 122.209 30.5552C124.202 27.539 125.878 24.1511 127.2 20.5051C128.522 24.1511 130.197 27.539 132.19 30.5552C135.052 34.8868 138.638 38.5359 142.824 41.0158C138.638 43.4959 135.052 47.1454 132.19 51.4772C130.197 54.4936 128.521 57.8819 127.199 61.5281C125.877 57.8819 124.201 54.4936 122.208 51.4771C119.346 47.1456 115.76 43.4963 111.575 41.0161Z" fill="#F1AC4F" stroke="white" stroke-width="7"/>
<path d="M611.576 134.016C615.761 131.536 619.347 127.888 622.209 123.556C624.202 120.54 625.878 117.152 627.2 113.506C628.522 117.152 630.197 120.54 632.19 123.556C635.052 127.888 638.638 131.536 642.823 134.016C638.638 136.496 635.052 140.145 632.19 144.477C630.197 147.493 628.522 150.881 627.2 154.527C625.878 150.881 624.202 147.493 622.209 144.477C619.348 140.145 615.761 136.496 611.576 134.016Z" fill="#F1AC4F" stroke="white" stroke-width="7"/>
<defs>
<clipPath id="clip0_51_234">
<rect width="118" height="175" fill="white" transform="translate(0 205)"/>
</clipPath>
<clipPath id="clip1_51_234">
<rect width="173" height="257" fill="white" transform="translate(528 309)"/>
</clipPath>
<clipPath id="clip2_51_234">
<rect width="173" height="257" fill="white" transform="translate(17 436)"/>
</clipPath>
</defs>
</svg>
